<svg width="44" height="44" viewBox="0 0 44 44" fill="none" xmlns="http://www.w3.org/2000/svg">
<rect width="44" height="44" rx="22" fill="#D4D4D4"/>
<path fill-rule="evenodd" clip-rule="evenodd" d="M16.3352 26.0462C15.8883 26.4931 15.8883 27.2178 16.3352 27.6647C16.7821 28.1116 17.5068 28.1116 17.9537 27.6647L22 23.6184L26.0465 27.6648C26.4935 28.1118 27.2181 28.1118 27.665 27.6648C28.112 27.2179 28.112 26.4933 27.665 26.0463L23.6185 21.9999L27.6647 17.9537C28.1116 17.5068 28.1116 16.7821 27.6647 16.3352C27.2178 15.8883 26.4931 15.8883 26.0462 16.3352L22 20.3814L17.954 16.3354C17.5071 15.8884 16.7825 15.8884 16.3355 16.3354C15.8886 16.7823 15.8886 17.5069 16.3355 17.9539L20.3815 21.9999L16.3352 26.0462Z" fill="white"/>
</svg>
