<svg width="129" height="19" viewBox="0 0 129 19" fill="none" xmlns="http://www.w3.org/2000/svg">
<path d="M0.391234 15V2.4H6.60123C8.00524 2.4 9.24124 2.658 10.3092 3.174C11.3772 3.678 12.2112 4.398 12.8112 5.334C13.4112 6.27 13.7112 7.386 13.7112 8.682C13.7112 9.99 13.4112 11.118 12.8112 12.066C12.2112 13.002 11.3772 13.728 10.3092 14.244C9.24124 14.748 8.00524 15 6.60123 15H0.391234ZM4.63923 11.688H6.42123C7.02123 11.688 7.54323 11.574 7.98723 11.346C8.44323 11.118 8.79723 10.782 9.04924 10.338C9.30123 9.882 9.42723 9.33 9.42723 8.682C9.42723 8.046 9.30123 7.506 9.04924 7.062C8.79723 6.618 8.44323 6.282 7.98723 6.054C7.54323 5.826 7.02123 5.712 6.42123 5.712H4.63923V11.688ZM20.5723 15.18C19.3723 15.18 18.3223 14.958 17.4223 14.514C16.5343 14.07 15.8443 13.464 15.3523 12.696C14.8603 11.916 14.6143 11.04 14.6143 10.068C14.6143 9.072 14.8543 8.19 15.3343 7.422C15.8263 6.654 16.4923 6.054 17.3323 5.622C18.1843 5.19 19.1383 4.974 20.1943 4.974C21.1663 4.974 22.0603 5.166 22.8763 5.55C23.7043 5.934 24.3643 6.504 24.8563 7.26C25.3603 8.016 25.6123 8.952 25.6123 10.068C25.6123 10.212 25.6063 10.374 25.5943 10.554C25.5823 10.722 25.5703 10.878 25.5583 11.022H17.9803V9.06H23.3983L21.8683 9.582C21.8683 9.198 21.7963 8.874 21.6523 8.61C21.5203 8.334 21.3343 8.124 21.0943 7.98C20.8543 7.824 20.5663 7.746 20.2303 7.746C19.8943 7.746 19.6003 7.824 19.3483 7.98C19.1083 8.124 18.9223 8.334 18.7903 8.61C18.6583 8.874 18.5923 9.198 18.5923 9.582V10.194C18.5923 10.614 18.6763 10.974 18.8443 11.274C19.0123 11.574 19.2523 11.802 19.5643 11.958C19.8763 12.102 20.2543 12.174 20.6983 12.174C21.1543 12.174 21.5263 12.114 21.8143 11.994C22.1143 11.874 22.4263 11.694 22.7503 11.454L24.8743 13.596C24.3943 14.112 23.8003 14.508 23.0923 14.784C22.3963 15.048 21.5563 15.18 20.5723 15.18ZM30.7481 15.18C29.9081 15.18 29.0801 15.09 28.2641 14.91C27.4481 14.73 26.7881 14.496 26.2841 14.208L27.4001 11.526C27.8681 11.802 28.4081 12.018 29.0201 12.174C29.6441 12.33 30.2501 12.408 30.8381 12.408C31.3301 12.408 31.6601 12.366 31.8281 12.282C32.0081 12.198 32.0981 12.084 32.0981 11.94C32.0981 11.796 31.9961 11.694 31.7921 11.634C31.5881 11.562 31.3181 11.508 30.9821 11.472C30.6461 11.436 30.2741 11.394 29.8661 11.346C29.4701 11.286 29.0681 11.202 28.6601 11.094C28.2521 10.986 27.8801 10.824 27.5441 10.608C27.2081 10.392 26.9381 10.104 26.7341 9.744C26.5301 9.372 26.4281 8.904 26.4281 8.34C26.4281 7.716 26.6141 7.152 26.9861 6.648C27.3701 6.144 27.9341 5.742 28.6781 5.442C29.4341 5.13 30.3641 4.974 31.4681 4.974C32.1881 4.974 32.9081 5.04 33.6281 5.172C34.3481 5.304 34.9661 5.508 35.4821 5.784L34.3661 8.466C33.8621 8.19 33.3641 8.004 32.8721 7.908C32.3921 7.8 31.9421 7.746 31.5221 7.746C31.0061 7.746 30.6521 7.794 30.4601 7.89C30.2801 7.986 30.1901 8.094 30.1901 8.214C30.1901 8.358 30.2921 8.466 30.4961 8.538C30.7001 8.61 30.9701 8.664 31.3061 8.7C31.6421 8.736 32.0081 8.784 32.4041 8.844C32.8121 8.892 33.2141 8.976 33.6101 9.096C34.0181 9.204 34.3901 9.366 34.7261 9.582C35.0621 9.798 35.3321 10.092 35.5361 10.464C35.7401 10.824 35.8421 11.286 35.8421 11.85C35.8421 12.438 35.6561 12.99 35.2841 13.506C34.9121 14.01 34.3481 14.418 33.5921 14.73C32.8361 15.03 31.8881 15.18 30.7481 15.18ZM37.0738 15V5.154H41.1418V15H37.0738ZM39.1078 4.362C38.3638 4.362 37.7698 4.164 37.3258 3.768C36.8818 3.372 36.6598 2.88 36.6598 2.292C36.6598 1.704 36.8818 1.212 37.3258 0.815999C37.7698 0.419999 38.3638 0.221999 39.1078 0.221999C39.8518 0.221999 40.4458 0.407999 40.8898 0.78C41.3338 1.152 41.5558 1.632 41.5558 2.22C41.5558 2.844 41.3338 3.36 40.8898 3.768C40.4458 4.164 39.8518 4.362 39.1078 4.362ZM47.9489 18.672C46.9769 18.672 46.0649 18.57 45.2129 18.366C44.3609 18.162 43.6289 17.856 43.0169 17.448L44.3849 14.676C44.7689 14.976 45.2549 15.21 45.8429 15.378C46.4429 15.558 47.0069 15.648 47.5349 15.648C48.3749 15.648 48.9749 15.468 49.3349 15.108C49.6949 14.76 49.8749 14.256 49.8749 13.596V12.768L50.0549 9.708L50.0729 6.648V5.154H53.9429V13.038C53.9429 14.946 53.4149 16.362 52.3589 17.286C51.3029 18.21 49.8329 18.672 47.9489 18.672ZM47.1569 14.46C46.3289 14.46 45.5549 14.268 44.8349 13.884C44.1149 13.488 43.5329 12.936 43.0889 12.228C42.6449 11.52 42.4229 10.68 42.4229 9.708C42.4229 8.736 42.6449 7.896 43.0889 7.188C43.5329 6.48 44.1149 5.934 44.8349 5.55C45.5549 5.166 46.3289 4.974 47.1569 4.974C48.0089 4.974 48.7049 5.142 49.2449 5.478C49.7969 5.814 50.2049 6.336 50.4689 7.044C50.7329 7.74 50.8649 8.628 50.8649 9.708C50.8649 10.788 50.7329 11.682 50.4689 12.39C50.2049 13.086 49.7969 13.608 49.2449 13.956C48.7049 14.292 48.0089 14.46 47.1569 14.46ZM48.2369 11.292C48.5609 11.292 48.8489 11.226 49.1009 11.094C49.3529 10.962 49.5509 10.776 49.6949 10.536C49.8389 10.296 49.9109 10.02 49.9109 9.708C49.9109 9.384 49.8389 9.108 49.6949 8.88C49.5509 8.64 49.3529 8.46 49.1009 8.34C48.8489 8.208 48.5609 8.142 48.2369 8.142C47.9249 8.142 47.6369 8.208 47.3729 8.34C47.1209 8.46 46.9169 8.64 46.7609 8.88C46.6169 9.108 46.5449 9.384 46.5449 9.708C46.5449 10.02 46.6169 10.296 46.7609 10.536C46.9169 10.776 47.1209 10.962 47.3729 11.094C47.6369 11.226 47.9249 11.292 48.2369 11.292ZM62.5818 4.974C63.3378 4.974 64.0218 5.13 64.6338 5.442C65.2458 5.742 65.7258 6.216 66.0738 6.864C66.4338 7.512 66.6138 8.352 66.6138 9.384V15H62.5458V10.086C62.5458 9.474 62.4378 9.042 62.2218 8.79C62.0058 8.526 61.7118 8.394 61.3398 8.394C61.0638 8.394 60.8058 8.46 60.5658 8.592C60.3378 8.712 60.1518 8.916 60.0078 9.204C59.8758 9.492 59.8098 9.882 59.8098 10.374V15H55.7418V5.154H59.6118V8.034L58.8378 7.206C59.2218 6.462 59.7378 5.904 60.3858 5.532C61.0458 5.16 61.7778 4.974 62.5818 4.974Z" fill="#6900EE"/>
<path d="M75.0225 15.288C74.0145 15.288 73.0785 15.132 72.2145 14.82C71.3625 14.496 70.6185 14.04 69.9825 13.452C69.3585 12.864 68.8725 12.168 68.5245 11.364C68.1765 10.56 68.0025 9.672 68.0025 8.7C68.0025 7.728 68.1765 6.84 68.5245 6.036C68.8725 5.232 69.3585 4.536 69.9825 3.948C70.6185 3.36 71.3625 2.91 72.2145 2.598C73.0785 2.274 74.0145 2.112 75.0225 2.112C76.2585 2.112 77.3505 2.328 78.2985 2.76C79.2585 3.192 80.0505 3.816 80.6745 4.632L77.9925 7.026C77.6205 6.558 77.2065 6.198 76.7505 5.946C76.3065 5.682 75.8025 5.55 75.2385 5.55C74.7945 5.55 74.3925 5.622 74.0325 5.766C73.6725 5.91 73.3605 6.12 73.0965 6.396C72.8445 6.672 72.6465 7.008 72.5025 7.404C72.3585 7.788 72.2865 8.22 72.2865 8.7C72.2865 9.18 72.3585 9.618 72.5025 10.014C72.6465 10.398 72.8445 10.728 73.0965 11.004C73.3605 11.28 73.6725 11.49 74.0325 11.634C74.3925 11.778 74.7945 11.85 75.2385 11.85C75.8025 11.85 76.3065 11.724 76.7505 11.472C77.2065 11.208 77.6205 10.842 77.9925 10.374L80.6745 12.768C80.0505 13.572 79.2585 14.196 78.2985 14.64C77.3505 15.072 76.2585 15.288 75.0225 15.288ZM86.6958 15.18C85.5798 15.18 84.5898 14.964 83.7258 14.532C82.8738 14.088 82.2018 13.482 81.7098 12.714C81.2178 11.946 80.9718 11.064 80.9718 10.068C80.9718 9.072 81.2178 8.19 81.7098 7.422C82.2018 6.654 82.8738 6.054 83.7258 5.622C84.5898 5.19 85.5798 4.974 86.6958 4.974C87.8118 4.974 88.8018 5.19 89.6658 5.622C90.5298 6.054 91.2018 6.654 91.6818 7.422C92.1738 8.19 92.4198 9.072 92.4198 10.068C92.4198 11.064 92.1738 11.946 91.6818 12.714C91.2018 13.482 90.5298 14.088 89.6658 14.532C88.8018 14.964 87.8118 15.18 86.6958 15.18ZM86.6958 12.012C86.9958 12.012 87.2658 11.94 87.5058 11.796C87.7458 11.652 87.9378 11.436 88.0818 11.148C88.2258 10.848 88.2978 10.488 88.2978 10.068C88.2978 9.636 88.2258 9.282 88.0818 9.006C87.9378 8.718 87.7458 8.502 87.5058 8.358C87.2658 8.214 86.9958 8.142 86.6958 8.142C86.3958 8.142 86.1258 8.214 85.8857 8.358C85.6458 8.502 85.4538 8.718 85.3098 9.006C85.1658 9.282 85.0938 9.636 85.0938 10.068C85.0938 10.488 85.1658 10.848 85.3098 11.148C85.4538 11.436 85.6458 11.652 85.8857 11.796C86.1258 11.94 86.3958 12.012 86.6958 12.012ZM93.693 15V1.644H97.761V15H93.693ZM99.5641 15V1.644H103.632V15H99.5641ZM111.393 15V13.254L111.105 12.786V9.474C111.105 8.994 110.955 8.628 110.655 8.376C110.367 8.124 109.893 7.998 109.233 7.998C108.789 7.998 108.339 8.07 107.883 8.214C107.427 8.346 107.037 8.532 106.713 8.772L105.417 6.09C105.993 5.73 106.683 5.454 107.487 5.262C108.291 5.07 109.077 4.974 109.845 4.974C111.537 4.974 112.845 5.352 113.769 6.108C114.705 6.864 115.173 8.064 115.173 9.708V15H111.393ZM108.603 15.18C107.799 15.18 107.127 15.042 106.587 14.766C106.047 14.49 105.639 14.124 105.363 13.668C105.087 13.2 104.949 12.684 104.949 12.12C104.949 11.484 105.111 10.944 105.435 10.5C105.759 10.056 106.251 9.72 106.911 9.492C107.583 9.264 108.429 9.15 109.449 9.15H111.501V11.112H110.097C109.665 11.112 109.347 11.184 109.143 11.328C108.951 11.46 108.855 11.664 108.855 11.94C108.855 12.168 108.939 12.36 109.107 12.516C109.287 12.66 109.527 12.732 109.827 12.732C110.103 12.732 110.355 12.66 110.583 12.516C110.823 12.36 110.997 12.12 111.105 11.796L111.627 13.002C111.471 13.734 111.141 14.28 110.637 14.64C110.133 15 109.455 15.18 108.603 15.18ZM123.501 15.18C122.601 15.18 121.875 15 121.323 14.64C120.771 14.28 120.369 13.722 120.117 12.966C119.877 12.21 119.757 11.244 119.757 10.068C119.757 8.904 119.889 7.95 120.153 7.206C120.417 6.45 120.825 5.892 121.377 5.532C121.941 5.16 122.649 4.974 123.501 4.974C124.365 4.974 125.157 5.178 125.877 5.586C126.597 5.994 127.173 6.582 127.605 7.35C128.037 8.106 128.253 9.012 128.253 10.068C128.253 11.124 128.037 12.036 127.605 12.804C127.173 13.56 126.597 14.148 125.877 14.568C125.157 14.976 124.365 15.18 123.501 15.18ZM116.931 15V1.644H120.999V6.468L120.819 10.068L120.801 13.668V15H116.931ZM122.529 12.012C122.829 12.012 123.099 11.94 123.339 11.796C123.579 11.652 123.771 11.436 123.915 11.148C124.059 10.848 124.131 10.488 124.131 10.068C124.131 9.636 124.059 9.282 123.915 9.006C123.771 8.718 123.579 8.502 123.339 8.358C123.099 8.214 122.829 8.142 122.529 8.142C122.229 8.142 121.959 8.214 121.719 8.358C121.479 8.502 121.287 8.718 121.143 9.006C120.999 9.282 120.927 9.636 120.927 10.068C120.927 10.488 120.999 10.848 121.143 11.148C121.287 11.436 121.479 11.652 121.719 11.796C121.959 11.94 122.229 12.012 122.529 12.012Z" fill="#111111"/>
</svg>
